<?xml version="1.0" encoding="UTF-8"?>
<svg width="42px" height="41px" viewBox="0 0 42 41" version="1.1" xmlns="http://www.w3.org/2000/svg" xmlns:xlink="http://www.w3.org/1999/xlink">
    <!-- Generator: Sketch 64 (93537) - https://sketch.com -->
    <title>ic-heart</title>
    <desc>Created with Sketch.</desc>
    <g id="Page-1" stroke="none" stroke-width="1" fill="none" fill-rule="evenodd" stroke-linecap="round" stroke-linejoin="round">
        <g id="ic-heart" transform="translate(1.000000, 1.312500)" stroke="#2F44F7" stroke-width="1.5">
            <path d="M18.375,24.95325 C17.947125,24.94275 17.5100625,24.9375 17.0625,24.9375 C9.751875,24.9375 4.9258125,26.4665625 2.3270625,27.6189375 C0.905625,28.25025 0,29.659875 0,31.2151875 L0,38.0625 L22.3125,38.0625" id="Path"></path>
            <path d="M7.875,9.1875 C7.875,4.113375 11.988375,0 17.0625,0 C22.136625,0 26.25,4.113375 26.25,9.1875 C26.25,14.261625 22.136625,19.6875 17.0625,19.6875 C11.988375,19.6875 7.875,14.261625 7.875,9.1875 Z" id="Path"></path>
            <path d="M38.1163125,24.927 C36.2000625,22.9438125 33.004125,23.268 31.5,25.6134375 C29.9945625,23.265375 26.7973125,22.9464375 24.8836875,24.927 C23.2063125,26.6634375 23.2063125,29.4774375 24.8836875,31.213875 L31.4986875,38.0625 L38.1163125,31.213875 C39.795,29.4774375 39.795,26.6634375 38.1163125,24.927 Z" id="Path"></path>
        </g>
    </g>
</svg>