<?xml version="1.0" encoding="UTF-8"?>
<svg width="42px" height="42px" viewBox="0 0 42 42" version="1.1" xmlns="http://www.w3.org/2000/svg" xmlns:xlink="http://www.w3.org/1999/xlink">
    <!-- Generator: Sketch 64 (93537) - https://sketch.com -->
    <title>ic-money</title>
    <desc>Created with Sketch.</desc>
    <g id="Page-1" stroke="none" stroke-width="1" fill="none" fill-rule="evenodd">
        <g id="ic-money" transform="translate(1.000000, 1.000000)" stroke="#2F44F7" stroke-width="1.5">
            <polyline id="Path" points="17.375 9.5 17.375 17.375 9.5 17.375"></polyline>
            <path d="M23.9375,25.25 L23.9375,30.5 C23.9375,32.6748125 27.462875,34.4375 31.8125,34.4375 C36.162125,34.4375 39.6875,32.6748125 39.6875,30.5 L39.6875,25.25" id="Path"></path>
            <path d="M23.9375,30.5 L23.9375,35.75 C23.9375,37.9248125 27.462875,39.6875 31.8125,39.6875 C36.162125,39.6875 39.6875,37.9248125 39.6875,35.75 L39.6875,30.5" id="Path"></path>
            <ellipse id="Oval" cx="31.8125" cy="25.25" rx="7.875" ry="3.9375"></ellipse>
            <path d="M18.6875,34.387625 C18.254375,34.4204375 17.816,34.4375 17.375,34.4375 C7.95125,34.4375 0.3125,26.79875 0.3125,17.375 C0.3125,7.95125 7.95125,0.3125 17.375,0.3125 C26.3564375,0.3125 33.71825,7.253 34.387625,16.0625" id="Path"></path>
        </g>
    </g>
</svg>