<?xml version="1.0" encoding="UTF-8"?>
<svg width="213px" height="84px" viewBox="0 0 213 84" version="1.1" xmlns="http://www.w3.org/2000/svg" xmlns:xlink="http://www.w3.org/1999/xlink">
    <!-- Generator: Sketch 64 (93537) - https://sketch.com -->
    <title>vcd-light</title>
    <desc>Created with Sketch.</desc>
    <defs>
        <linearGradient x1="-1.87010166e-15%" y1="50.0267394%" x2="100.002968%" y2="50.0267394%" id="linearGradient-1">
            <stop stop-color="#2F44F7" offset="0%"></stop>
            <stop stop-color="#02A5F6" offset="100%"></stop>
        </linearGradient>
    </defs>
    <g id="Page-1" stroke="none" stroke-width="1" fill="none" fill-rule="evenodd">
        <g id="vcd-light" fill-rule="nonzero">
            <rect id="Rectangle" fill="#2F44F7" x="0" y="13.62" width="19.19" height="6.81" rx="3.4"></rect>
            <rect id="Rectangle" fill="#2F44F7" x="0" y="27.23" width="8.65" height="6.81" rx="3.4"></rect>
            <path d="M102.45,-4.52013154e-05 L80.19,-4.52013154e-05 C78.3122319,-4.52013154e-05 76.79,1.52223185 76.79,3.4 L76.79,3.4 C76.7899919,5.27939266 78.3106154,6.80448858 80.19,6.81 L82.91,6.81 C84.6098242,6.76671593 86.100302,7.9381055 86.46,9.6 C86.6340783,10.5909211 86.3616817,11.6081405 85.7157003,12.3794615 C85.069719,13.1507825 84.1160922,13.5974717 83.11,13.6 L67.78,13.6 C65.9022319,13.6 64.38,15.1222319 64.38,17 L64.38,17 C64.38,17.9017361 64.7382133,18.7665394 65.3758369,19.4041631 C66.0134606,20.0417867 66.8782639,20.4 67.78,20.4 L70.15,20.4 C70.9637131,20.3998515 71.7146853,20.8371507 72.1161693,21.5449215 C72.5176533,22.2526924 72.5076581,23.1216514 72.09,23.82 L64.62,36.45 C64.3791583,36.8475442 63.9226844,37.0610195 63.463181,36.991 C63.0036776,36.9209804 62.631504,36.5812349 62.52,36.13 L54.79,3.05 C54.3361652,1.29218148 52.7554291,0.0604390807 50.94,0.05 L16.94,0.05 C15.0622319,0.05 13.54,1.57223185 13.54,3.45 L13.54,3.45 C13.54,5.32776815 15.0622319,6.85 16.94,6.85 L29.45,6.85 C30.8262262,6.82500642 32.0768451,7.64684167 32.6,8.92 C32.9871138,9.87881823 32.9182581,10.9614976 32.4127976,11.8635504 C31.907337,12.7656031 31.019876,13.3895812 30,13.56 L30,13.62 L24.81,13.62 C22.9322319,13.62 21.41,15.1422319 21.41,17.02 L21.41,17.02 C21.41,18.8977681 22.9322319,20.42 24.81,20.42 L35.81,20.42 C37.1237151,20.3939186 38.3284692,21.1473805 38.88,22.34 C39.373034,23.4005815 39.2934205,24.6390107 38.6686452,25.6277328 C38.0438698,26.616455 36.9595366,27.2199999 35.79,27.23 L14.16,27.23 C12.2822319,27.23 10.76,28.7522319 10.76,30.63 L10.76,30.63 C10.76,32.5077681 12.2822319,34.03 14.16,34.03 L33.55,34.03 C33.3617114,34.0296637 33.1739434,34.0497817 32.99,34.09 C34.1234838,34.2826341 35.0828316,35.0350637 35.54,36.09 L35.81,37.17 C35.814963,37.2599316 35.814963,37.3500684 35.81,37.44 C35.8107683,39.0907505 34.6257067,40.5035464 33,40.79 C33.1847063,40.8253174 33.3720042,40.845385 33.56,40.85 L21.9,40.85 C20.0222319,40.85 18.5,42.3722319 18.5,44.25 L18.5,44.25 C18.5,46.1277681 20.0222319,47.65 21.9,47.65 L40.67,47.65 C41.9793969,47.6304962 43.1779287,48.3825161 43.73,49.57 C44.2287563,50.6302618 44.1517768,51.8717663 43.5258613,52.8622927 C42.8999458,53.8528192 41.8117042,54.4553053 40.64,54.46 L33.45,54.46 C31.5722319,54.46 30.05,55.9822319 30.05,57.86 L30.05,57.86 C30.05,59.7377681 31.5722319,61.26 33.45,61.26 L42,61.26 C43.3115674,61.2326917 44.5140117,61.9871666 45.06,63.18 C45.5611795,64.2363847 45.4897075,65.4753062 44.8703738,66.4670498 C44.2510401,67.4587933 43.1691679,68.0667302 42,68.08 L41.61,68.08 L41.61,68.08 L41.17,68.08 C39.2922319,68.08 37.77,69.6022319 37.77,71.48 L37.77,71.48 C37.77,72.3817361 38.1282133,73.2465394 38.7658369,73.8841631 C39.4034606,74.5217867 40.2682639,74.8800003 41.17,74.8800003 L57.62,74.8800003 C59.5823857,74.8800003 61.4085997,73.8769597 62.46,72.22 L105.26,5 C105.884865,3.98541279 105.910345,2.71175105 105.326558,1.67298431 C104.742771,0.634217578 103.641556,-0.00624111194 102.45,-4.52013154e-05 Z" id="Path" fill="url(#linearGradient-1)"></path>
            <rect id="Rectangle" fill="#2F44F7" x="65.72" y="0" width="6.81" height="6.81" rx="3.4"></rect>
            <rect id="Rectangle" fill="#2F44F7" x="28.85" y="68.12" width="6.81" height="6.81" rx="3.4"></rect>
            <polygon id="Path" fill="#FFFFFF" points="130.41 20.66 121.61 42.54 112.25 42.54 103.45 20.66 112.73 20.66 117.13 32.38 121.85 20.66"></polygon>
            <path d="M149.61,22.84 C151.61,24.56 152.61,27.2066667 152.61,30.78 L152.61,42.54 L144.22,42.54 L144.22,39.66 C143.18,41.8533333 141.11,42.9466667 138.01,42.94 C136.490241,42.9843757 134.980839,42.6763345 133.6,42.04 C131.294517,40.9924661 129.835197,38.6717137 129.89,36.14 C129.79087,34.1773429 130.733299,32.3076851 132.37,31.22 C134.03,30.1 136.53,29.54 139.89,29.54 L143.53,29.54 C143.24,27.84 141.87,26.98 139.41,26.98 C138.393134,26.9889119 137.382819,27.1438268 136.41,27.44 C135.478617,27.7107313 134.599606,28.1367136 133.81,28.7 L130.93,22.7 C132.341949,21.8659366 133.872902,21.2522066 135.47,20.88 C137.203307,20.4455739 138.983086,20.2239411 140.77,20.22 C144.65,20.26 147.59,21.12 149.61,22.84 Z M142.49,37 C143.027429,36.6200285 143.421812,36.0707089 143.61,35.44 L143.61,33.9 L141.37,33.9 C139.53,33.9 138.61,34.52 138.61,35.74 C138.601765,36.2263264 138.815198,36.6899922 139.19,37 C139.637149,37.3555025 140.199737,37.5335369 140.77,37.5 C141.381384,37.5162941 141.98263,37.3415133 142.49,37 L142.49,37 Z" id="Shape" fill="#FFFFFF"></path>
            <path d="M180.54,20.66 L171.54,42.98 C170.741059,45.3634306 169.246925,47.4531286 167.25,48.98 C165.388268,50.1715671 163.209255,50.7712315 161,50.7 C159.747341,50.6958055 158.501607,50.5139955 157.3,50.16 C156.234909,49.8880131 155.235192,49.4051565 154.36,48.74 L157.36,42.54 C157.828362,42.8955549 158.34749,43.178716 158.9,43.38 C159.432267,43.5884043 159.998397,43.6968843 160.57,43.7 C161.408346,43.7601837 162.228673,43.4364672 162.8,42.82 L153.6,20.66 L162.88,20.66 L167.41,32.38 L172,20.66 L180.54,20.66 Z" id="Path" fill="#FFFFFF"></path>
            <path d="M88.83,73.88 C86.9537124,73.0016327 85.3603973,71.6161413 84.23,69.88 C82.0169948,66.2795324 82.0169948,61.7404676 84.23,58.14 C85.3640111,56.4070071 86.9563284,55.0223833 88.83,54.14 C90.9094409,53.1533961 93.188716,52.6605798 95.49,52.7 C97.8849359,52.6320734 100.25206,53.2273151 102.33,54.42 C104.160408,55.4908824 105.549975,57.1782135 106.25,59.18 L99.25,62.62 C98.4033333,60.7 97.1366667,59.74 95.45,59.74 C94.4447336,59.7197902 93.4780478,60.1268158 92.79,60.86 C91.3766667,62.7444444 91.3766667,65.3355556 92.79,67.22 C93.4750601,67.9574671 94.443758,68.3653399 95.45,68.34 C97.13,68.34 98.3966667,67.38 99.25,65.46 L106.25,68.9 C105.555438,70.9048563 104.164469,72.5938907 102.33,73.66 C100.253842,74.8570927 97.8854508,75.4526531 95.49,75.38 C93.1839847,75.4007133 90.9044783,74.8873109 88.83,73.88 L88.83,73.88 Z" id="Path" fill="#FFFFFF"></path>
            <path d="M132.25,53 L132.25,74.92 L123.65,74.92 L123.65,72.84 C122.866328,73.6601841 121.909846,74.2955615 120.85,74.7 C119.76601,75.1195961 118.612324,75.3299741 117.45,75.32 C114.968204,75.4315732 112.55067,74.5123312 110.77,72.78 C109.09,71.0933333 108.25,68.54 108.25,65.12 L108.25,53 L117.25,53 L117.25,63.56 C117.154399,64.6753836 117.405875,65.7930548 117.97,66.76 C118.465774,67.4259063 119.260815,67.8009258 120.09,67.76 C120.94895,67.7710642 121.763372,67.3786609 122.29,66.7 C122.959062,65.7211584 123.269886,64.5414387 123.17,63.36 L123.17,53 L132.25,53 Z M117.67,83 C116.991068,82.342033 116.626954,81.4244659 116.67,80.48 C116.633164,79.5247901 116.995454,78.5973262 117.67,77.92 C119.131931,76.5875146 121.368069,76.5875146 122.83,77.92 C123.504546,78.5973262 123.866836,79.5247901 123.83,80.48 C123.873046,81.4244659 123.508932,82.342033 122.83,83 C121.347642,84.2786624 119.152358,84.2786624 117.67,83 L117.67,83 Z M126.53,53 L128.13,53 C128.717017,53.0042837 129.277706,52.7567068 129.67,52.32 C130.11816,51.846229 130.356134,51.2116315 130.33,50.56 C130.35243,49.7275363 130.06766,48.9159408 129.53,48.28 L134.65,46.48 C135.655751,47.7677555 136.179325,49.3667771 136.13,51 C136.261977,53.1062032 135.456775,55.1631303 133.93,56.62 C132.185589,58.0374918 129.973904,58.7509385 127.73,58.62 L126.53,58.62 L126.53,53 Z" id="Shape" fill="#FFFFFF"></path>
            <path d="M141.35,73.88 C139.473712,73.0016327 137.880397,71.6161413 136.75,69.88 C134.536995,66.2795324 134.536995,61.7404676 136.75,58.14 C137.884011,56.4070071 139.476328,55.0223833 141.35,54.14 C143.421447,53.1341945 145.697356,52.6208315 148,52.64 C150.394936,52.5720734 152.76206,53.1673151 154.84,54.36 C156.666412,55.4355669 158.054611,57.1212377 158.76,59.12 L151.76,62.56 C150.906667,60.64 149.64,59.68 147.96,59.68 C146.954247,59.6572425 145.986565,60.0646876 145.3,60.8 C143.886667,62.6844444 143.886667,65.2755556 145.3,67.16 C145.99356,67.9092772 146.97972,68.3183514 148,68.28 C149.68,68.28 150.946667,67.32 151.8,65.4 L158.8,68.84 C158.102304,70.8430965 156.712141,72.5311522 154.88,73.6 C152.79219,74.8043309 150.408929,75.4001463 148,75.32 C145.702081,75.3578764 143.426403,74.8650979 141.35,73.88 L141.35,73.88 Z" id="Path" fill="#FFFFFF"></path>
            <path d="M184.85,45.24 L184.85,74.92 L176.25,74.92 L176.25,73.12 C174.916667,74.5866667 172.916667,75.32 170.25,75.32 C168.392362,75.3369516 166.563481,74.8607525 164.95,73.94 C163.318541,72.9952891 161.987362,71.6086437 161.11,69.94 C159.20935,66.1657795 159.20935,61.7142205 161.11,57.94 C162.009995,56.2867218 163.35835,54.9210359 165,54 C166.613481,53.0792475 168.442362,52.6030484 170.3,52.62 C172.329867,52.480265 174.331467,53.1570653 175.86,54.5 L175.86,45.24 L184.85,45.24 Z M175,67.14 C175.705471,66.2505029 176.061158,65.1336466 176,64 C176.073841,62.8586425 175.717019,61.7310854 175,60.84 C174.339527,60.1271868 173.411765,59.7220245 172.44,59.7220245 C171.468235,59.7220245 170.540473,60.1271868 169.88,60.84 C169.162981,61.7310854 168.806159,62.8586425 168.88,64 C168.80887,65.1471593 169.165114,66.2800154 169.88,67.18 C170.532471,67.9069156 171.463207,68.3221749 172.44,68.3221749 C173.416793,68.3221749 174.347529,67.9069156 175,67.18 L175,67.14 Z" id="Shape" fill="#FFFFFF"></path>
            <path d="M212,66.08 L196.8,66.08 C197.094802,66.880913 197.660939,67.5532002 198.4,67.98 C199.257378,68.446801 200.224401,68.674742 201.2,68.64 C202.021471,68.6617541 202.840432,68.5399251 203.62,68.28 C204.396619,67.9631997 205.121343,67.5317359 205.77,67 L210.49,71.76 C208.363333,74.1133333 205.176667,75.2866667 200.93,75.28 C198.515196,75.3407861 196.119165,74.8410425 193.93,73.82 C192.027931,72.9366516 190.418018,71.5279777 189.29,69.76 C187.116061,66.1629495 187.116061,61.6570505 189.29,58.06 C190.375311,56.3448403 191.911284,54.9610804 193.73,54.06 C197.64081,52.1822284 202.183582,52.1382661 206.13,53.94 C207.922956,54.7920648 209.435517,56.1381051 210.49,57.82 C211.624482,59.6773398 212.194289,61.8245396 212.13,64 C212.13,64.1 212.09,64.8 212,66.08 Z M203.28,50.64 L199.92,48.2 L196.56,50.64 L191,50.64 L196.16,45.44 L203.76,45.44 L208.92,50.64 L203.28,50.64 Z M200.88,43.64 C200.20892,43.370079 199.565857,43.0351504 198.96,42.64 C198.690657,42.4679617 198.41002,42.3142799 198.12,42.18 C197.908154,42.0737964 197.676646,42.012515 197.44,42 C197.013696,41.9942925 196.60296,42.1600284 196.3,42.46 C195.985651,42.7767735 195.794241,43.1950414 195.76,43.64 L191.36,43.64 C191.260446,42.0398569 191.783605,40.4632146 192.82,39.24 C193.887088,38.1619696 195.3656,37.5938715 196.88,37.68 C197.583313,37.6678916 198.282479,37.7900759 198.94,38.04 C199.609987,38.3260057 200.258353,38.6602153 200.88,39.04 C201.160269,39.2228672 201.454514,39.383364 201.76,39.52 C201.98232,39.6389321 202.22819,39.7072293 202.48,39.72 C202.92349,39.7339324 203.352166,39.5595554 203.66,39.24 C203.968015,38.9269189 204.158722,38.5172516 204.2,38.08 L208.48,38.08 C208.577263,39.6669973 208.069905,41.2319478 207.06,42.46 C205.995265,43.5397116 204.512957,44.1019663 203,44 C202.282752,44.0278517 201.566738,43.9192619 200.89,43.68 L200.88,43.64 Z M197.88,59.52 C197.241701,60.0791231 196.817513,60.8426625 196.68,61.68 L203.68,61.68 C203.532762,60.8517576 203.109873,60.097606 202.48,59.54 C201.82753,59.0060193 201.002538,58.7286512 200.16,58.76 C199.319709,58.7456451 198.501434,59.0290306 197.85,59.56 L197.88,59.52 Z" id="Shape" fill="#FFFFFF"></path>
        </g>
    </g>
</svg>