<?xml version="1.0" encoding="UTF-8"?>
<svg width="139px" height="55px" viewBox="0 0 139 55" version="1.1" xmlns="http://www.w3.org/2000/svg" xmlns:xlink="http://www.w3.org/1999/xlink">
    <!-- Generator: Sketch 64 (93537) - https://sketch.com -->
    <title>foot-logo</title>
    <desc>Created with Sketch.</desc>
    <defs>
        <linearGradient x1="-1.87010166e-15%" y1="50.0267394%" x2="100.002968%" y2="50.0267394%" id="linearGradient-1">
            <stop stop-color="#2F44F7" offset="0%"></stop>
            <stop stop-color="#02A5F6" offset="100%"></stop>
        </linearGradient>
    </defs>
    <g id="Page-1" stroke="none" stroke-width="1" fill="none" fill-rule="evenodd">
        <g id="foot-logo" fill-rule="nonzero">
            <rect id="Rectangle" fill="#2F44F7" x="0" y="8.91785714" width="12.564881" height="4.45892857" rx="2.22946429"></rect>
            <rect id="Rectangle" fill="#2F44F7" x="0" y="17.8291667" width="5.66369048" height="4.45892857" rx="2.22946429"></rect>
            <path d="M67.0803571,-5.87669585e-05 L52.5053571,-5.87669585e-05 C51.2758661,-5.87669585e-05 50.2791667,0.996699426 50.2791667,2.22619048 L50.2791667,2.22619048 C50.2791614,3.45674519 51.2748077,4.4553199 52.5053571,4.45892857 L54.2863095,4.45892857 C55.3992897,4.43058781 56.3751977,5.19756908 56.6107143,6.28571429 C56.7246941,6.93453167 56.5463392,7.60056818 56.1233752,8.10559979 C55.7004112,8.6106314 55.0760127,8.90310647 54.4172619,8.9047619 L44.3797619,8.9047619 C43.1502709,8.9047619 42.1535714,9.90146136 42.1535714,11.1309524 L42.1535714,11.1309524 C42.1535714,11.7213748 42.3881159,12.2876151 42.8056075,12.7051068 C43.2230992,13.1225984 43.7893395,13.3571429 44.3797619,13.3571429 L45.9315476,13.3571429 C46.464336,13.3570456 46.9560439,13.6433725 47.2189204,14.1067938 C47.4817968,14.5702153 47.4752523,15.1391765 47.2017857,15.5964286 L42.3107143,23.8660714 C42.1530203,24.1263682 41.8541386,24.2661437 41.5532733,24.2202976 C41.252408,24.1744515 41.0087229,23.951999 40.9357143,23.6565476 L35.8744048,1.99702381 C35.577251,0.846071207 34.5422452,0.0395732076 33.3535714,0.0327380952 L11.0916667,0.0327380952 C9.86217565,0.0327380952 8.86547619,1.02943752 8.86547619,2.25892857 L8.86547619,2.25892857 C8.86547619,3.48841962 9.86217565,4.48511905 11.0916667,4.48511905 L19.2827381,4.48511905 C20.1838386,4.4687542 21.0026962,5.00686062 21.3452381,5.84047619 C21.5987055,6.46827384 21.5536214,7.17717105 21.2226651,7.76780086 C20.8917087,8.3584306 20.3106331,8.76698769 19.6428571,8.87857143 L19.6428571,8.91785714 L16.2446429,8.91785714 C15.0151518,8.91785714 14.0184524,9.9145566 14.0184524,11.1440476 L14.0184524,11.1440476 C14.0184524,12.3735386 15.0151518,13.3702381 16.2446429,13.3702381 L23.4470238,13.3702381 C24.3071944,13.353161 25.0960215,13.8464991 25.4571429,14.627381 C25.7799627,15.3218093 25.7278349,16.1326856 25.3187558,16.7800631 C24.9096767,17.4274408 24.1996966,17.822619 23.4339286,17.8291667 L9.27142857,17.8291667 C8.04193755,17.8291667 7.0452381,18.8258661 7.0452381,20.0553571 L7.0452381,20.0553571 C7.0452381,21.2848482 8.04193755,22.2815476 9.27142857,22.2815476 L21.9672619,22.2815476 C21.8439777,22.2813274 21.7210344,22.2944999 21.6005952,22.3208333 C22.3427572,22.4469628 22.9709016,22.939625 23.2702381,23.6303571 L23.4470238,24.3375 C23.4502734,24.3963838 23.4502734,24.4554019 23.4470238,24.5142857 C23.4475269,25.5951343 22.6715937,26.5201792 21.6071429,26.7077381 C21.7280815,26.7308626 21.850717,26.7440021 21.9738095,26.7470238 L14.3392857,26.7470238 C13.1097947,26.7470238 12.1130952,27.7437233 12.1130952,28.9732143 L12.1130952,28.9732143 C12.1130952,30.2027053 13.1097947,31.1994048 14.3392857,31.1994048 L26.6291667,31.1994048 C27.4865099,31.1866344 28.2712628,31.6790284 28.6327381,32.4565476 C28.9593047,33.1507667 28.9089015,33.9636565 28.4990759,34.6122155 C28.0892502,35.2607745 27.3767111,35.6552594 26.6095238,35.6583333 L21.9017857,35.6583333 C20.6722947,35.6583333 19.6755952,36.6550328 19.6755952,37.8845238 L19.6755952,37.8845238 C19.6755952,39.1140148 20.6722947,40.1107143 21.9017857,40.1107143 L27.5,40.1107143 C28.3587644,40.0928339 29.1460791,40.5868353 29.5035714,41.3678571 C29.8317247,42.0595376 29.7849275,42.8707362 29.3794114,43.5200921 C28.9738953,44.169448 28.2655266,44.5675019 27.5,44.5761905 L27.2446429,44.5761905 L27.2446429,44.5761905 L26.9565476,44.5761905 C25.7270566,44.5761905 24.7303571,45.5728899 24.7303571,46.802381 L24.7303571,46.802381 C24.7303571,47.3928034 24.9649016,47.9590437 25.3823932,48.3765354 C25.7998849,48.794027 26.3661252,49.0285716 26.9565476,49.0285716 L37.727381,49.0285716 C39.0122764,49.0285716 40.2080117,48.3718189 40.8964286,47.2869048 L68.9202381,3.27380952 C69.3293759,2.60949647 69.3460592,1.77555128 68.9638177,1.09540639 C68.5815762,0.415261509 67.8605426,-0.00408644234 67.0803571,-5.87669585e-05 Z" id="Path" fill="url(#linearGradient-1)"></path>
            <rect id="Rectangle" fill="#2F44F7" x="43.0309524" y="0" width="4.45892857" height="4.45892857" rx="2.22946429"></rect>
            <rect id="Rectangle" fill="#2F44F7" x="18.889881" y="44.602381" width="4.45892857" height="4.45892857" rx="2.22946429"></rect>
            <polygon id="Path" fill="#000000" points="85.3875 13.527381 79.6255952 27.8535714 73.4970238 27.8535714 67.735119 13.527381 73.8113095 13.527381 76.6922619 21.2011905 79.7827381 13.527381"></polygon>
            <path d="M97.9589286,14.9547619 C99.2684524,16.0809524 99.9232143,17.8138889 99.9232143,20.1535714 L99.9232143,27.8535714 L94.4297619,27.8535714 L94.4297619,25.9678571 C93.7488095,27.4039682 92.3934524,28.1198413 90.3636905,28.1154762 C89.3686102,28.1445317 88.3803112,27.9428381 87.4761905,27.5261905 C85.966648,26.8403052 85.0111409,25.3207649 85.0470238,23.6630952 C84.9821173,22.3780221 85.5991839,21.1538414 86.6708333,20.4416667 C87.7577381,19.7083333 89.3946429,19.3416667 91.5946429,19.3416667 L93.9779762,19.3416667 C93.7880952,18.2285714 92.8910714,17.6654762 91.2803571,17.6654762 C90.614552,17.6713114 89.9530362,17.7727437 89.3160714,17.9666667 C88.7062373,18.1439312 88.1306944,18.4228482 87.6136905,18.7916667 L85.7279762,14.8630952 C86.6524666,14.3169823 87.6548763,13.9151353 88.7005952,13.6714286 C89.8354986,13.3869829 91.0008301,13.2418662 92.1708333,13.2392857 C94.7113095,13.2654762 96.6363095,13.8285714 97.9589286,14.9547619 Z M93.2970238,24.2261905 C93.6489118,23.9773996 93.9071388,23.6177261 94.0303571,23.2047619 L94.0303571,22.1964286 L92.5636905,22.1964286 C91.3589286,22.1964286 90.7565476,22.602381 90.7565476,23.4011905 C90.7511557,23.7196185 90.8909035,24.0232092 91.1363095,24.2261905 C91.4290857,24.45896 91.7974468,24.5755301 92.1708333,24.5535714 C92.5711443,24.5642402 92.9648173,24.4498004 93.2970238,24.2261905 L93.2970238,24.2261905 Z" id="Shape" fill="#000000"></path>
            <path d="M118.210714,13.527381 L112.317857,28.1416667 C111.794741,29.7022462 110.816439,31.0705009 109.508929,32.0702381 C108.289937,32.8504308 106.863203,33.2430682 105.416667,33.1964286 C104.596473,33.1936822 103.780814,33.0746399 102.994048,32.8428571 C102.296667,32.6647705 101.64209,32.3486144 101.069048,31.9130952 L103.033333,27.8535714 C103.339999,28.0863752 103.679904,28.2717783 104.041667,28.4035714 C104.390175,28.5400266 104.760855,28.6110552 105.135119,28.6130952 C105.684036,28.6525012 106.221155,28.440544 106.595238,28.0369048 L100.571429,13.527381 L106.647619,13.527381 L109.61369,21.2011905 L112.619048,13.527381 L118.210714,13.527381 Z" id="Path" fill="#000000"></path>
            <path d="M58.1625,48.3738095 C56.9339784,47.7986881 55.8907363,46.8915211 55.1505952,45.7547619 C53.7016037,43.3973129 53.7016037,40.4253062 55.1505952,38.0678571 C55.8931025,36.9331594 56.9356912,36.0265605 58.1625,35.4488095 C59.5240387,34.8028189 61.0164212,34.4801415 62.5232143,34.5059524 C64.0913271,34.4614766 65.6412298,34.8512182 67.0017857,35.6321429 C68.2002671,36.3333159 69.1101027,37.438116 69.5684524,38.7488095 L64.985119,41.0011905 C64.4307539,39.7440476 63.6013889,39.1154762 62.4970238,39.1154762 C61.8388137,39.1022436 61.2058646,39.3687484 60.7553571,39.8488095 C59.8299603,41.0826719 59.8299603,42.7792328 60.7553571,44.0130952 C61.2039084,44.4959606 61.8381749,44.7630202 62.4970238,44.7464286 C63.5970238,44.7464286 64.4263889,44.1178571 64.985119,42.8607143 L69.5684524,45.1130952 C69.1136796,46.4257988 68.2029261,47.5317141 67.0017857,48.2297619 C65.6423965,49.0135726 64.0916642,49.4035229 62.5232143,49.3559524 C61.0133233,49.3695147 59.5207894,49.0333583 58.1625,48.3738095 L58.1625,48.3738095 Z" id="Path" fill="#000000"></path>
            <path d="M86.5922619,34.702381 L86.5922619,49.0547619 L80.9613095,49.0547619 L80.9613095,47.6928571 C80.448191,48.2298824 79.821923,48.6459034 79.1279762,48.9107143 C78.4182208,49.1854498 77.6628312,49.3231973 76.9017857,49.3166667 C75.2768002,49.3897205 73.6938911,48.7878359 72.5279762,47.6535714 C71.4279762,46.5492063 70.8779762,44.877381 70.8779762,42.6380952 L70.8779762,34.702381 L76.7708333,34.702381 L76.7708333,41.6166667 C76.7082374,42.3469774 76.8728943,43.0787859 77.2422619,43.7119048 C77.5668758,44.1479148 78.0874384,44.3934633 78.6303571,44.3666667 C79.1927649,44.3739111 79.7260174,44.1169804 80.0708333,43.672619 C80.5089096,43.0317109 80.7124254,42.2592753 80.6470238,41.4857143 L80.6470238,34.702381 L86.5922619,34.702381 Z M77.0458333,54.3452381 C76.6012945,53.9144264 76.3628865,53.3136384 76.3910714,52.6952381 C76.3669526,52.069803 76.6041663,51.462535 77.0458333,51.0190476 C78.0030501,50.1465869 79.467188,50.1465869 80.4244048,51.0190476 C80.8660718,51.462535 81.1032855,52.069803 81.0791667,52.6952381 C81.1073515,53.3136384 80.8689436,53.9144264 80.4244048,54.3452381 C79.4538132,55.1824575 78.0164249,55.1824575 77.0458333,54.3452381 L77.0458333,54.3452381 Z M82.8470238,34.702381 L83.8946429,34.702381 C84.2789992,34.7051858 84.646117,34.5430818 84.9029762,34.2571429 C85.1964143,33.9469357 85.3522306,33.5314254 85.335119,33.1047619 C85.3498054,32.5596964 85.1633488,32.0282946 84.8113095,31.6119048 L88.1636905,30.4333333 C88.8222179,31.2765066 89.1650342,32.323485 89.1327381,33.3928571 C89.2191516,34.7719188 88.691936,36.1187163 87.6922619,37.072619 C86.550088,38.0007387 85.101961,38.4678764 83.6327381,38.3821429 L82.8470238,38.3821429 L82.8470238,34.702381 Z" id="Shape" fill="#000000"></path>
            <path d="M92.5505952,48.3738095 C91.3220733,47.7986881 90.2788314,46.8915211 89.5386905,45.7547619 C88.0896991,43.3973129 88.0896991,40.4253062 89.5386905,38.0678571 C90.2811977,36.9331594 91.3237862,36.0265605 92.5505952,35.4488095 C93.9068998,34.7902464 95.3970783,34.4541159 96.9047619,34.4666667 C98.4728748,34.4221909 100.022777,34.8119325 101.383333,35.5928571 C102.579198,36.2970974 103.488138,37.4008104 103.95,38.7095238 L99.3666667,40.9619048 C98.8079367,39.7047619 97.9785714,39.0761905 96.8785714,39.0761905 C96.2200427,39.0612897 95.5864414,39.3280693 95.1369048,39.8095238 C94.2115082,41.0433862 94.2115082,42.7399471 95.1369048,43.9738095 C95.5910214,44.4644077 96.2367214,44.7322539 96.9047619,44.7071429 C98.0047619,44.7071429 98.8341272,44.0785714 99.3928571,42.8214286 L103.97619,45.0738095 C103.519366,46.3853608 102.60914,47.4906354 101.409524,48.1904762 C100.042505,48.9790262 98.4820368,49.3691434 96.9047619,49.3166667 C95.4001721,49.3414667 93.9101448,49.0188141 92.5505952,48.3738095 L92.5505952,48.3738095 Z" id="Path" fill="#000000"></path>
            <path d="M121.032738,29.6214286 L121.032738,49.0547619 L115.401786,49.0547619 L115.401786,47.8761905 C114.52877,48.836508 113.219246,49.3166667 111.473214,49.3166667 C110.256904,49.3277659 109.059422,49.0159689 108.002976,48.4130952 C106.934759,47.7945345 106.063154,46.8866119 105.48869,45.7940476 C104.244217,43.3228318 104.244217,40.4081206 105.48869,37.9369048 C106.077973,36.8544012 106.960824,35.9602021 108.035714,35.3571429 C109.09216,34.7542692 110.289642,34.4424722 111.505952,34.4535714 C112.835032,34.3620783 114.145603,34.8052213 115.146429,35.6845238 L115.146429,29.6214286 L121.032738,29.6214286 Z M114.583333,43.9607143 C115.045249,43.3783055 115.278139,42.6470305 115.238095,41.9047619 C115.286444,41.1574445 115.05281,40.4191631 114.583333,39.8357143 C114.150881,39.3689914 113.543418,39.1037065 112.907143,39.1037065 C112.270868,39.1037065 111.663405,39.3689914 111.230952,39.8357143 C110.761476,40.4191631 110.527842,41.1574445 110.57619,41.9047619 C110.529617,42.6558781 110.762872,43.3976291 111.230952,43.9869048 C111.658166,44.4628614 112.267576,44.7347574 112.907143,44.7347574 C113.54671,44.7347574 114.15612,44.4628614 114.583333,43.9869048 L114.583333,43.9607143 Z" id="Shape" fill="#000000"></path>
            <path d="M138.809524,43.2666667 L128.857143,43.2666667 C129.050168,43.791074 129.420853,44.231262 129.904762,44.5107143 C130.46614,44.8163578 131.09931,44.9656049 131.738095,44.9428571 C132.275963,44.9571009 132.812188,44.8773319 133.322619,44.7071429 C133.83112,44.4997141 134.305641,44.217208 134.730357,43.8690476 L137.820833,46.9857143 C136.428373,48.5265873 134.341865,49.2948413 131.56131,49.2904762 C129.980188,49.3302766 128.411358,49.0030635 126.977976,48.3345238 C125.732574,47.7561409 124.678464,46.8337949 123.939881,45.6761905 C122.516469,43.3209788 122.516469,40.3706878 123.939881,38.0154762 C124.650501,36.892455 125.656198,35.9864217 126.847024,35.3964286 C129.407673,34.1669353 132.382107,34.1381504 134.966071,35.3178571 C136.140031,35.8757567 137.130398,36.7570926 137.820833,37.8583333 C138.563649,39.0744487 138.936737,40.4803533 138.894643,41.9047619 C138.894643,41.9702381 138.868452,42.4285714 138.809524,43.2666667 Z M133.1,33.1571429 L130.9,31.5595238 L128.7,33.1571429 L125.059524,33.1571429 L128.438095,29.752381 L133.414286,29.752381 L136.792857,33.1571429 L133.1,33.1571429 Z M131.528571,28.5738095 C131.089174,28.3970755 130.668121,28.177777 130.271429,27.9190476 C130.095073,27.8064035 129.911323,27.7057785 129.721429,27.6178571 C129.58272,27.5483191 129.431137,27.5081943 129.27619,27.5 C128.997063,27.4962629 128.728129,27.6047805 128.529762,27.8011905 C128.323938,28.0086017 128.19861,28.2824676 128.17619,28.5738095 L125.295238,28.5738095 C125.230054,27.5260968 125.572599,26.4937715 126.25119,25.6928571 C126.949879,24.9870039 127.917952,24.6150349 128.909524,24.6714286 C129.370026,24.6635005 129.827814,24.7435021 130.258333,24.9071429 C130.697015,25.0944085 131.121541,25.3132362 131.528571,25.5619048 C131.712081,25.6816392 131.904741,25.7867264 132.104762,25.8761905 C132.250329,25.9540627 132.411315,25.9987811 132.57619,26.0071429 C132.866571,26.0162653 133.147252,25.9020898 133.34881,25.6928571 C133.550486,25.4878636 133.675354,25.219629 133.702381,24.9333333 L136.504762,24.9333333 C136.568446,25.9724387 136.236247,26.9971087 135.575,27.8011905 C134.877852,28.5081445 133.907293,28.8762875 132.916667,28.8095238 C132.44704,28.82776 131.978221,28.7566596 131.535119,28.6 L131.528571,28.5738095 Z M129.564286,38.9714286 C129.146352,39.3375211 128.86861,39.8374576 128.778571,40.3857143 L133.361905,40.3857143 C133.265499,39.8434127 132.988607,39.349623 132.57619,38.9845238 C132.148978,38.6348936 131.608805,38.4532835 131.057143,38.4738095 C130.506952,38.4644105 129.971177,38.6499605 129.544643,38.997619 L129.564286,38.9714286 Z" id="Shape" fill="#000000"></path>
        </g>
    </g>
</svg>